<?xml version="1.0" standalone="no"?>
<!DOCTYPE svg PUBLIC "-//W3C//DTD SVG 20010904//EN"
 "http://www.w3.org/TR/2001/REC-SVG-20010904/DTD/svg10.dtd">
<svg version="1.0" xmlns="http://www.w3.org/2000/svg"
 width="80.000000pt" height="80.000000pt" viewBox="0 0 80.000000 80.000000"
 preserveAspectRatio="xMidYMid meet">

<g transform="translate(0.000000,80.000000) scale(0.100000,-0.100000)"
fill="#000000" stroke="none">
<path d="M492 695 c-60 -26 -174 -106 -228 -159 -55 -56 -134 -170 -160 -232
-14 -33 -13 -41 6 -100 23 -69 64 -114 104 -114 26 0 136 109 136 135 0 9 -20
38 -45 64 -25 26 -45 54 -45 62 0 39 150 189 189 189 8 0 36 -20 62 -45 26
-25 55 -45 64 -45 26 0 135 110 135 136 0 39 -45 81 -112 103 -72 24 -64 24
-106 6z m126 -35 c23 -11 42 -26 42 -34 0 -9 7 -16 15 -16 31 0 14 -43 -34
-92 -51 -50 -89 -62 -83 -24 2 12 -1 16 -10 13 -7 -2 -30 11 -50 31 l-37 35
-47 -28 c-67 -40 -114 -85 -153 -150 l-34 -56 35 -37 c20 -20 33 -43 31 -50
-3 -9 1 -12 13 -10 38 6 26 -32 -24 -83 -48 -47 -92 -65 -92 -35 0 7 -8 16
-19 19 -12 3 -27 26 -41 63 l-22 59 36 70 c69 135 178 246 315 319 71 39 83
39 159 6z"/>
<path d="M630 590 c0 -5 5 -10 10 -10 6 0 10 5 10 10 0 6 -4 10 -10 10 -5 0
-10 -4 -10 -10z"/>
<path d="M600 560 c0 -5 5 -10 10 -10 6 0 10 5 10 10 0 6 -4 10 -10 10 -5 0
-10 -4 -10 -10z"/>
<path d="M570 530 c0 -5 5 -10 10 -10 6 0 10 5 10 10 0 6 -4 10 -10 10 -5 0
-10 -4 -10 -10z"/>
<path d="M260 220 c0 -5 5 -10 10 -10 6 0 10 5 10 10 0 6 -4 10 -10 10 -5 0
-10 -4 -10 -10z"/>
<path d="M230 190 c0 -5 5 -10 10 -10 6 0 10 5 10 10 0 6 -4 10 -10 10 -5 0
-10 -4 -10 -10z"/>
<path d="M200 160 c0 -5 5 -10 10 -10 6 0 10 5 10 10 0 6 -4 10 -10 10 -5 0
-10 -4 -10 -10z"/>
</g>
</svg>
