<?xml version="1.0" standalone="no"?>
<!DOCTYPE svg PUBLIC "-//W3C//DTD SVG 20010904//EN"
 "http://www.w3.org/TR/2001/REC-SVG-20010904/DTD/svg10.dtd">
<svg version="1.0" xmlns="http://www.w3.org/2000/svg"
 width="64.000000pt" height="64.000000pt" viewBox="0 0 64.000000 64.000000"
 preserveAspectRatio="xMidYMid meet">
<metadata>
Created by potrace 1.16, written by Peter Selinger 2001-2019
</metadata>
<g transform="translate(0.000000,64.000000) scale(0.100000,-0.100000)"
fill="#000000" stroke="none">
<path d="M182 589 c-108 -53 -162 -144 -162 -269 0 -123 53 -214 155 -268 44
-24 61 -27 145 -27 84 0 101 3 145 27 103 54 155 145 155 269 0 177 -123 299
-301 299 -65 0 -85 -4 -137 -31z m243 -38 c89 -41 145 -133 145 -238 0 -66
-17 -109 -65 -161 -51 -57 -107 -82 -183 -82 -75 0 -116 16 -170 65 -55 49
-82 108 -82 177 0 106 55 197 145 239 54 25 156 25 210 0z"/>
<path d="M300 520 c0 -12 -10 -24 -24 -30 -89 -33 -66 -178 30 -193 45 -7 64
-23 64 -52 0 -35 -30 -53 -90 -57 -48 -3 -55 -6 -58 -25 -3 -21 1 -23 37 -23
34 0 41 -3 41 -20 0 -13 7 -20 20 -20 13 0 20 7 20 20 0 12 10 24 24 30 89 33
66 178 -30 193 -45 7 -64 23 -64 52 0 35 30 53 90 57 48 3 55 6 58 26 3 20 -1
22 -37 22 -34 0 -41 3 -41 20 0 13 -7 20 -20 20 -13 0 -20 -7 -20 -20z"/>
</g>
</svg>
