<?xml version="1.0" standalone="no"?>
<!DOCTYPE svg PUBLIC "-//W3C//DTD SVG 20010904//EN"
 "http://www.w3.org/TR/2001/REC-SVG-20010904/DTD/svg10.dtd">
<svg version="1.0" xmlns="http://www.w3.org/2000/svg"
 width="50.000000pt" height="50.000000pt" viewBox="0 0 50.000000 50.000000"
 preserveAspectRatio="xMidYMid meet">

<g transform="translate(0.000000,50.000000) scale(0.100000,-0.100000)"
fill="#000000" stroke="none">
<path d="M120 290 c0 -260 -6 -250 134 -250 73 0 98 4 110 16 24 23 24 355 0
378 -12 12 -37 16 -105 16 -88 0 -89 0 -89 25 0 20 -5 25 -25 25 l-25 0 0
-210z m133 138 l102 -3 0 -180 0 -180 -94 -3 c-60 -2 -98 1 -107 9 -11 9 -14
51 -13 213 1 110 4 189 6 174 l4 -27 102 -3z"/>
<path d="M164 387 c-3 -8 -4 -39 -2 -68 l3 -54 85 0 85 0 0 65 0 65 -83 3
c-64 2 -84 0 -88 -11z m156 -57 l0 -50 -70 0 -70 0 0 50 0 50 70 0 70 0 0 -50z"/>
<path d="M174 229 c-10 -17 13 -36 27 -22 12 12 4 33 -11 33 -5 0 -12 -5 -16
-11z"/>
<path d="M234 229 c-10 -17 13 -36 27 -22 12 12 4 33 -11 33 -5 0 -12 -5 -16
-11z"/>
<path d="M294 229 c-10 -17 13 -36 27 -22 12 12 4 33 -11 33 -5 0 -12 -5 -16
-11z"/>
<path d="M174 169 c-10 -17 13 -36 27 -22 12 12 4 33 -11 33 -5 0 -12 -5 -16
-11z"/>
<path d="M234 169 c-10 -17 13 -36 27 -22 12 12 4 33 -11 33 -5 0 -12 -5 -16
-11z"/>
<path d="M294 169 c-10 -17 13 -36 27 -22 12 12 4 33 -11 33 -5 0 -12 -5 -16
-11z"/>
<path d="M174 109 c-10 -17 13 -36 27 -22 12 12 4 33 -11 33 -5 0 -12 -5 -16
-11z"/>
<path d="M234 109 c-10 -17 13 -36 27 -22 12 12 4 33 -11 33 -5 0 -12 -5 -16
-11z"/>
<path d="M294 109 c-10 -17 13 -36 27 -22 12 12 4 33 -11 33 -5 0 -12 -5 -16
-11z"/>
</g>
</svg>
